<svg width="31" height="31" viewBox="0 0 31 31" fill="none" xmlns="http://www.w3.org/2000/svg">
<path fill-rule="evenodd" clip-rule="evenodd" d="M1.07429 30.5C0.966864 30.5 0.752005 30.5 0.644576 30.3889C0.214859 30.1667 0 29.8333 0 29.3889V10.5C0 4.94444 4.29717 0.5 9.66864 0.5H20.4116C25.783 0.5 30.0802 4.94444 30.0802 10.5V14.9444C30.0802 20.5 25.783 24.9444 20.4116 24.9444H15.3624C10.4206 24.9444 5.58633 26.8333 1.8263 30.2778C1.61144 30.3889 1.28915 30.5 1.07429 30.5ZM15.3624 23.4444C10.3352 23.4444 5.425 25.2581 1.5 28.5679V10.5C1.5 5.72483 5.17284 2 9.66864 2H20.4116C24.9074 2 28.5802 5.72483 28.5802 10.5V14.9444C28.5802 19.7196 24.9074 23.4444 20.4116 23.4444H15.3624ZM11.0294 13.7353C11.7604 13.7353 12.3529 13.1427 12.3529 12.4118C12.3529 11.6808 11.7604 11.0882 11.0294 11.0882C10.2984 11.0882 9.70588 11.6808 9.70588 12.4118C9.70588 13.1427 10.2984 13.7353 11.0294 13.7353ZM16.7647 12.4118C16.7647 13.1427 16.1721 13.7353 15.4412 13.7353C14.7102 13.7353 14.1176 13.1427 14.1176 12.4118C14.1176 11.6808 14.7102 11.0882 15.4412 11.0882C16.1721 11.0882 16.7647 11.6808 16.7647 12.4118ZM19.8529 13.7353C20.5839 13.7353 21.1765 13.1427 21.1765 12.4118C21.1765 11.6808 20.5839 11.0882 19.8529 11.0882C19.122 11.0882 18.5294 11.6808 18.5294 12.4118C18.5294 13.1427 19.122 13.7353 19.8529 13.7353Z" fill="black"/>
</svg>
